<?xml version="1.0" encoding="UTF-8"?>
<svg id="Laag_1" xmlns="http://www.w3.org/2000/svg" viewBox="0 0 316.27 103.57">
  <defs>
    <style>
      .cls-1 {
        fill: #1d1d1b;
      }
    </style>
  </defs>
  <g>
    <g>
      <path class="cls-1" d="M39.89,49.23c-2.22,3.79-6.33,6.34-11.03,6.34-7.05,0-12.78-5.73-12.78-12.78,0-1.72.34-3.36.96-4.86.57.43,1.17.81,1.81,1.14.56.31,1.16.59,1.79.82-.32.91-.5,1.88-.5,2.89,0,4.81,3.91,8.71,8.71,8.71,4.1,0,7.54-2.84,8.47-6.66.98,1.14,1.83,2.59,2.56,4.38Z"/>
      <path class="cls-1" d="M70.6,27.67c-.06,4.37-2.69,8.62-6.62,10.66-1.31.73-2.8,1.23-4.26,1.52-3.59.75-7.23.34-10.46,1.58-2.27.89-3.92,2.5-5.16,4.46-1.1,1.74-1.88,3.74-2.47,5.74-.6-1.99-1.37-4-2.47-5.74-1.24-1.96-2.89-3.57-5.16-4.46-3.24-1.24-6.88-.83-10.46-1.58-1.47-.29-2.95-.79-4.26-1.52-3.94-2.04-6.56-6.29-6.62-10.66,2.96,4.02,6.36,7.93,11.52,8.46,3.45.41,7.52-.11,10.99,1.11,2.58.81,4.78,2.46,6.48,4.52,1.69-2.07,3.9-3.71,6.47-4.52,3.46-1.21,7.54-.69,10.99-1.11,5.16-.53,8.56-4.43,11.52-8.46Z"/>
      <path class="cls-1" d="M43.35,49.23c2.22,3.79,6.33,6.34,11.03,6.34,7.05,0,12.78-5.73,12.78-12.78,0-1.72-.34-3.36-.96-4.86-.57.43-1.17.81-1.81,1.14-.56.31-1.16.59-1.79.82.32.91.5,1.88.5,2.89,0,4.81-3.91,8.71-8.71,8.71-4.1,0-7.54-2.84-8.47-6.66-.98,1.14-1.83,2.59-2.56,4.38Z"/>
    </g>
    <path class="cls-1" d="M103.71,98.2l-31.06-28.88c6.58-7.36,10.59-17.07,10.59-27.7C83.24,18.67,64.57,0,41.62,0S0,18.67,0,41.62s18.67,41.62,41.62,41.62c10.7,0,20.47-4.06,27.86-10.72l28.87,31.05,5.36-5.36ZM41.62,78.89c-20.55,0-37.27-16.72-37.27-37.27S21.07,4.35,41.62,4.35s37.27,16.72,37.27,37.27-16.72,37.27-37.27,37.27Z"/>
  </g>
  <g>
    <path d="M109.01,39.58h3.31v9.33h11.6v-9.33h3.28v24.26h-3.28v-11.65h-11.6v11.65h-3.31v-24.26Z"/>
    <path d="M131.44,51.56c0-3.5,1.32-6.5,3.96-9,2.64-2.5,5.81-3.75,9.52-3.75s6.73,1.26,9.35,3.78c2.62,2.52,3.92,5.51,3.92,8.97,0,3.67-1.29,6.77-3.88,9.3-2.58,2.53-5.75,3.8-9.51,3.8s-6.86-1.27-9.46-3.82-3.9-5.64-3.9-9.27ZM154.67,51.72c0-2.68-.96-4.93-2.89-6.76-1.93-1.83-4.3-2.75-7.12-2.75s-4.97.93-6.88,2.8c-1.91,1.86-2.87,4.1-2.87,6.71s.98,4.89,2.94,6.73c1.96,1.83,4.36,2.75,7.21,2.75,2.62,0,4.87-.93,6.77-2.81,1.9-1.87,2.85-4.09,2.85-6.67Z"/>
    <path d="M161.51,51.56c0-3.5,1.32-6.5,3.96-9,2.64-2.5,5.81-3.75,9.52-3.75s6.73,1.26,9.35,3.78,3.92,5.51,3.92,8.97c0,3.67-1.29,6.77-3.88,9.3-2.58,2.53-5.75,3.8-9.51,3.8s-6.86-1.27-9.46-3.82c-2.6-2.55-3.9-5.64-3.9-9.27ZM184.74,51.72c0-2.68-.96-4.93-2.89-6.76s-4.3-2.75-7.12-2.75-4.97.93-6.88,2.8c-1.91,1.86-2.87,4.1-2.87,6.71s.98,4.89,2.94,6.73c1.96,1.83,4.36,2.75,7.21,2.75,2.62,0,4.87-.93,6.77-2.81,1.9-1.87,2.85-4.09,2.85-6.67Z"/>
    <path d="M190.32,39.58h14.83v3.31h-5.79v20.95h-3.28v-20.95h-5.77v-3.31Z"/>
    <path d="M208.62,39.58h13.45v3.31h-10.17v6.06h10.17v3.28h-10.13v11.62h-3.31v-24.26Z"/>
    <path d="M225.91,39.58h3.28v24.26h-3.28v-24.26Z"/>
    <path d="M234.33,38.61l17.94,18.44v-17.47h3.31v25.38l-17.94-18.36v17.23h-3.31v-25.23Z"/>
    <path d="M260.57,39.58h5.88c4.66,0,8.12,1.23,10.4,3.69s3.41,5.27,3.41,8.44-1.17,6-3.52,8.45c-2.35,2.45-5.76,3.68-10.25,3.68h-5.92v-24.26ZM263.89,42.81v17.75h.19c2.46,0,4.32-.11,5.56-.33,1.24-.22,2.42-.71,3.54-1.46,1.12-.75,2-1.74,2.67-2.98.66-1.24.99-2.6.99-4.08,0-1.87-.53-3.55-1.58-5.07s-2.31-2.53-3.78-3.05c-1.47-.52-3.44-.78-5.91-.78h-1.68Z"/>
    <path d="M283.82,39.58h13.45v3.31h-10.17v6.06h10.17v3.28h-10.17v8.34h10.17v3.28h-13.45v-24.26Z"/>
    <path d="M301.69,39.58h5.26c2.62,0,4.75.65,6.39,1.95,1.64,1.3,2.47,2.97,2.47,5,0,1.62-.53,3.06-1.6,4.3s-2.72,2.12-4.98,2.63l7.05,10.38h-3.8l-6.73-9.98h-.74v9.98h-3.31v-24.26ZM305,42.51v8.46c4.89.1,7.33-1.31,7.33-4.25,0-1.03-.29-1.87-.86-2.52s-1.33-1.1-2.29-1.33-2.35-.35-4.19-.35Z"/>
  </g>
</svg>